<svg width="507" height="128" viewBox="0 0 507 128" fill="none" xmlns="http://www.w3.org/2000/svg">
<path d="M0 63.8789L12.3653 57.0455V25.6442H79.7235C84.9299 26.0346 90.3533 30.0371 92.4142 31.9895L0 63.8789Z" fill="white"/>
<path d="M21.3138 81.1251L12.6907 77.383V92.3515C15.1637 107.971 27.4965 111.984 33.3537 112.038H99.0849V46.9579L80.3743 101.951L39.699 88.1213L47.6714 94.4666L34.6553 104.391V85.8435L102.339 30.1997L21.3138 81.1251Z" fill="white"/>
<path d="M153.016 84.984C153.016 89.528 151.384 93.08 148.12 95.64C144.856 98.2 140.344 99.48 134.584 99.48C128.888 99.48 124.184 98.488 120.472 96.504V85.944C124.76 88.824 129.4 90.264 134.392 90.264C136.504 90.264 138.136 89.88 139.288 89.112C140.504 88.28 141.112 87.32 141.112 86.232C141.112 85.08 140.92 84.184 140.536 83.544C140.152 82.84 139.416 82.168 138.328 81.528C136.92 80.696 135.48 79.992 134.008 79.416C132.6 78.776 131.832 78.424 131.704 78.36C131.64 78.296 131.512 78.232 131.32 78.168C131.128 78.104 130.968 78.04 130.84 77.976C123.736 74.776 120.184 70.168 120.184 64.152C120.184 59.672 121.88 56.152 125.272 53.592C128.664 51.032 132.856 49.752 137.848 49.752C142.904 49.752 147.064 50.456 150.328 51.864V62.04C147.128 60.12 143.128 59.16 138.328 59.16C136.344 59.16 134.776 59.608 133.624 60.504C132.536 61.336 131.992 62.424 131.992 63.768C131.992 64.856 132.28 65.688 132.856 66.264C133.432 66.84 133.912 67.288 134.296 67.608C134.68 67.928 135.224 68.28 135.928 68.664C137.656 69.496 138.968 70.104 139.864 70.488C144.28 72.344 147.576 74.424 149.752 76.728C151.928 78.968 153.016 81.72 153.016 84.984ZM168.449 28.824C170.369 28.824 172.001 29.496 173.345 30.84C174.689 32.184 175.361 33.848 175.361 35.832C175.361 37.752 174.689 39.384 173.345 40.728C172.001 42.072 170.369 42.744 168.449 42.744C166.529 42.744 164.897 42.072 163.553 40.728C162.209 39.384 161.537 37.752 161.537 35.832C161.537 33.848 162.209 32.184 163.553 30.84C164.897 29.496 166.529 28.824 168.449 28.824ZM174.209 99H162.689V50.328H174.209V99ZM256.17 99H244.554V69.144C244.554 62.616 242.058 59.352 237.066 59.352C234.57 59.352 232.33 60.44 230.346 62.616C228.426 64.792 227.466 68.216 227.466 72.888V99H215.85V69.144C215.85 62.616 213.354 59.352 208.362 59.352C205.866 59.352 203.626 60.44 201.642 62.616C199.658 64.792 198.666 68.216 198.666 72.888V99H187.146V50.328H198.666V58.008C201.418 52.504 206.154 49.752 212.874 49.752C219.658 49.752 224.106 52.824 226.218 58.968C227.498 56.024 229.418 53.752 231.978 52.152C234.538 50.552 237.45 49.752 240.714 49.752C245.642 49.752 249.45 51.256 252.138 54.264C254.826 57.208 256.17 61.432 256.17 66.936V99ZM280.725 99.384C276.117 99.384 272.437 98.04 269.685 95.352C266.997 92.664 265.653 89.144 265.653 84.792C265.653 80.44 267.381 76.952 270.837 74.328C274.293 71.704 279.285 70.392 285.812 70.392H292.917V67.416C292.917 64.728 292.213 62.68 290.805 61.272C289.397 59.864 286.997 59.16 283.605 59.16C278.421 59.16 273.653 60.6 269.301 63.48V52.824C272.949 50.584 278.197 49.464 285.045 49.464C298.229 49.464 304.821 55.608 304.821 67.896V99H293.397V93.144C291.157 97.304 286.933 99.384 280.725 99.384ZM284.757 90.84C287.317 90.84 289.301 90.104 290.709 88.632C292.181 87.096 292.917 85.112 292.917 82.68V78.072H286.965C283.957 78.072 281.653 78.712 280.053 79.992C278.453 81.208 277.653 82.776 277.653 84.696C277.653 88.792 280.021 90.84 284.757 90.84ZM331.877 63.192C329.445 65.688 328.229 69.4 328.229 74.328C328.229 79.256 329.413 83.064 331.781 85.752C334.149 88.44 337.029 89.784 340.421 89.784C343.813 89.784 346.597 88.472 348.773 85.848C350.949 83.16 352.037 79.416 352.037 74.616C352.037 69.816 350.949 66.104 348.773 63.48C346.597 60.792 343.845 59.448 340.517 59.448C337.189 59.448 334.309 60.696 331.877 63.192ZM328.229 117.336H316.709V50.328H328.229V57.816C331.685 52.376 336.613 49.656 343.013 49.656C349.413 49.656 354.469 51.928 358.181 56.472C361.957 61.016 363.845 66.968 363.845 74.328C363.845 81.688 361.957 87.768 358.181 92.568C354.469 97.304 349.381 99.672 342.917 99.672C336.453 99.672 331.557 97.016 328.229 91.704V117.336ZM386.381 99.384C381.773 99.384 378.093 98.04 375.341 95.352C372.653 92.664 371.309 89.144 371.309 84.792C371.309 80.44 373.037 76.952 376.493 74.328C379.949 71.704 384.941 70.392 391.469 70.392H398.573V67.416C398.573 64.728 397.869 62.68 396.461 61.272C395.053 59.864 392.653 59.16 389.261 59.16C384.077 59.16 379.309 60.6 374.957 63.48V52.824C378.605 50.584 383.853 49.464 390.701 49.464C403.885 49.464 410.477 55.608 410.477 67.896V99H399.053V93.144C396.813 97.304 392.589 99.384 386.381 99.384ZM390.413 90.84C392.973 90.84 394.957 90.104 396.365 88.632C397.837 87.096 398.573 85.112 398.573 82.68V78.072H392.621C389.613 78.072 387.309 78.712 385.709 79.992C384.109 81.208 383.309 82.776 383.309 84.696C383.309 88.792 385.677 90.84 390.413 90.84ZM464.605 99H453.085V69.048C453.085 65.848 452.317 63.448 450.781 61.848C449.245 60.184 447.069 59.352 444.253 59.352C441.437 59.352 439.005 60.536 436.957 62.904C434.909 65.208 433.885 68.536 433.885 72.888V99H422.365V50.328H433.885V58.68C436.637 52.728 441.629 49.752 448.861 49.752C453.725 49.752 457.565 51.224 460.381 54.168C463.197 57.112 464.605 61.272 464.605 66.648V99Z" fill="white"/>
</svg>
